<svg width="16" height="16" viewBox="0 0 16 16" fill="none" xmlns="http://www.w3.org/2000/svg">
<g clip-path="url(#clip0_477_406)">
<g filter="url(#filter0_ddd_477_406)">
<path d="M6.292 12.562C6.05867 12.6833 5.78333 12.8233 5.466 12.982C5.158 13.1313 4.84067 13.2807 4.514 13.43C4.19667 13.57 3.898 13.6913 3.618 13.794L3.716 3.462L5.046 3.364L4.78 12.044C4.98533 11.988 5.228 11.918 5.508 11.834C5.788 11.7407 6.026 11.6567 6.222 11.582L6.292 12.562ZM6.32 6.472L12.2 4.568L12.508 5.828L6.656 7.522L6.32 6.472ZM7.58 9.664L12.998 11.694L12.494 13.01L7.188 10.798L7.58 9.664Z" fill="#FFF8F0"/>
</g>
</g>
<defs>
<filter id="filter0_ddd_477_406" x="-1.38199" y="-1.63599" width="19.38" height="20.4299" filterUnits="userSpaceOnUse" color-interpolation-filters="sRGB">
<feFlood flood-opacity="0" result="BackgroundImageFix"/>
<feColorMatrix in="SourceAlpha" type="matrix" values="0 0 0 0 0 0 0 0 0 0 0 0 0 0 0 0 0 0 127 0" result="hardAlpha"/>
<feOffset/>
<feGaussianBlur stdDeviation="2.5"/>
<feComposite in2="hardAlpha" operator="out"/>
<feColorMatrix type="matrix" values="0 0 0 0 0.996078 0 0 0 0 0.988235 0 0 0 0 0.968627 0 0 0 0.8 0"/>
<feBlend mode="normal" in2="BackgroundImageFix" result="effect1_dropShadow_477_406"/>
<feColorMatrix in="SourceAlpha" type="matrix" values="0 0 0 0 0 0 0 0 0 0 0 0 0 0 0 0 0 0 127 0" result="hardAlpha"/>
<feOffset dx="0.5" dy="0.5"/>
<feGaussianBlur stdDeviation="0.5"/>
<feComposite in2="hardAlpha" operator="out"/>
<feColorMatrix type="matrix" values="0 0 0 0 0 0 0 0 0 0 0 0 0 0 0 0 0 0 0.7 0"/>
<feBlend mode="normal" in2="effect1_dropShadow_477_406" result="effect2_dropShadow_477_406"/>
<feColorMatrix in="SourceAlpha" type="matrix" values="0 0 0 0 0 0 0 0 0 0 0 0 0 0 0 0 0 0 127 0" result="hardAlpha"/>
<feOffset dx="1" dy="1"/>
<feGaussianBlur stdDeviation="1"/>
<feComposite in2="hardAlpha" operator="out"/>
<feColorMatrix type="matrix" values="0 0 0 0 0.176471 0 0 0 0 0.137255 0 0 0 0 0.0980392 0 0 0 0.5 0"/>
<feBlend mode="normal" in2="effect2_dropShadow_477_406" result="effect3_dropShadow_477_406"/>
<feBlend mode="normal" in="SourceGraphic" in2="effect3_dropShadow_477_406" result="shape"/>
</filter>
<clipPath id="clip0_477_406">
<rect width="16" height="16" rx="8" fill="white"/>
</clipPath>
</defs>
</svg>
