<svg width="70" height="31" viewBox="0 0 70 31" fill="none" xmlns="http://www.w3.org/2000/svg">
<path d="M18.544 15.862L6.372 20.078L5.114 17.868L16.504 14.23L11.404 14.094L11.472 11.918L15.892 12.02L16.096 9.946L18.782 10.116L18.612 12.088L24.528 12.224L25.31 8.518L10.894 9.742L10.418 7.532L17.014 6.92L18.544 4.71L13.512 5.356L12.934 3.554L7.324 8.008L9.364 7.566L10.656 14.706L7.97 15.284L6.712 8.45L5.726 9.232L3.856 7.26L12.934 0.324L14.838 2.058L13.444 3.18L23.168 2.16L20.21 6.614L28.812 5.798L26.772 14.502L17.422 14.23L18.544 15.862ZM20.516 18.922L27.724 14.57L29.39 16.712L22.148 20.962L20.516 18.922ZM12.934 26.64L17.694 27.15L17.218 19.534L15.45 18.004L17.796 16.984L19.904 18.616L20.788 30.448L12.526 28.748L12.934 26.64ZM4.4 22.424L14.702 18.514L16.164 20.418L5.692 24.532L4.4 22.424ZM22.216 21.404L32.314 26.538L30.716 28.918L20.72 23.444L22.216 21.404ZM3.414 27.184L15.654 21.914L17.082 23.92L4.978 29.326L3.414 27.184ZM41.29 3.656L63.016 2.194L63.22 5.084L41.494 6.58L41.29 3.656ZM49.382 25.552L54.584 26.504L54.414 18.276L40.134 28.102L38.094 25.756L54.346 14.944L54.176 6.818L57.168 6.784L57.27 11.782L65.634 11.17L65.838 13.856L57.304 14.502L57.678 30.414L48.974 27.898L49.382 25.552ZM44.214 7.43L47.138 8.246L45.506 12.734L53.122 12.122L53.19 14.842L41.596 15.76L44.214 7.43Z" fill="#463B2F"/>
</svg>
