<svg width="146" height="20" viewBox="0 0 146 20" fill="none" xmlns="http://www.w3.org/2000/svg">
<g clip-path="url(#clip0_492_368)">
<path d="M6.048 14.928C5.78133 15.0667 5.46667 15.2267 5.104 15.408C4.752 15.5787 4.38933 15.7493 4.016 15.92C3.65333 16.08 3.312 16.2187 2.992 16.336L3.104 4.528L4.624 4.416L4.32 14.336C4.55467 14.272 4.832 14.192 5.152 14.096C5.472 13.9893 5.744 13.8933 5.968 13.808L6.048 14.928ZM6.08 7.968L12.8 5.792L13.152 7.232L6.464 9.168L6.08 7.968ZM7.52 11.616L13.712 13.936L13.136 15.44L7.072 12.912L7.52 11.616ZM23.696 16.736C23.7387 16.2773 23.7707 15.7973 23.792 15.296C23.824 14.7947 23.8507 14.2827 23.872 13.76L22.624 13.392L22.896 12.352L23.92 12.608C23.9307 12.2027 23.936 11.792 23.936 11.376C23.9467 10.96 23.952 10.5547 23.952 10.16C23.952 9.43467 23.9413 8.73067 23.92 8.048C23.9093 7.36533 23.888 6.74667 23.856 6.192L25.232 6.144C25.232 6.41067 25.232 6.69333 25.232 6.992C25.2427 7.29067 25.248 7.6 25.248 7.92C25.504 7.888 25.76 7.872 26.016 7.872C26.72 7.872 27.3813 8 28 8.256C28.6187 8.512 29.1413 8.88 29.568 9.36C29.4827 9.712 29.3333 10.1173 29.12 10.576C28.9173 11.0347 28.6827 11.5147 28.416 12.016C28.16 12.5067 27.8933 12.9813 27.616 13.44C27.3387 13.8987 27.0827 14.304 26.848 14.656L25.136 14.144C25.1147 14.6027 25.088 15.0507 25.056 15.488C25.0347 15.9253 25.0027 16.352 24.96 16.768L23.696 16.736ZM18.992 9.024L20.208 8.448L20.992 10.416C21.3227 9.95733 21.6693 9.552 22.032 9.2C22.4053 8.848 22.7893 8.55467 23.184 8.32L23.44 9.552C23.0773 9.76533 22.7307 10.0533 22.4 10.416C22.0693 10.768 21.7653 11.1787 21.488 11.648L22.432 14.016L21.28 14.512L18.992 9.024ZM26.304 13.216C26.72 12.5547 27.072 11.9147 27.36 11.296C27.6587 10.6667 27.8613 10.1387 27.968 9.712C27.7653 9.46667 27.488 9.296 27.136 9.2C26.7947 9.09333 26.4213 9.04 26.016 9.04C25.76 9.04 25.504 9.056 25.248 9.088C25.248 9.70667 25.2427 10.336 25.232 10.976C25.2213 11.616 25.2053 12.2667 25.184 12.928L26.304 13.216ZM37.008 4.08L43.968 4.384L43.808 5.92L36.752 5.44L37.008 4.08ZM39.456 16.432C39.808 15.984 40.176 15.4613 40.56 14.864C40.944 14.256 41.312 13.6267 41.664 12.976C42.0267 12.3147 42.3467 11.6853 42.624 11.088C42.912 10.48 43.1307 9.96267 43.28 9.536C42.9067 9.35467 42.5387 9.22133 42.176 9.136C41.8133 9.05067 41.456 9.008 41.104 9.008C40.464 9.008 39.8347 9.11467 39.216 9.328C38.5973 9.54133 37.9893 9.79733 37.392 10.096C36.8053 10.384 36.2187 10.656 35.632 10.912L34.96 9.632C35.728 9.29067 36.4533 8.976 37.136 8.688C37.8293 8.38933 38.5067 8.15467 39.168 7.984C39.84 7.80267 40.5173 7.712 41.2 7.712C41.8293 7.712 42.4747 7.80267 43.136 7.984C43.808 8.15467 44.5227 8.448 45.28 8.864C45.0667 9.408 44.7947 10.0373 44.464 10.752C44.1333 11.4667 43.7653 12.208 43.36 12.976C42.9547 13.744 42.528 14.4853 42.08 15.2C41.6427 15.904 41.2053 16.5227 40.768 17.056L39.456 16.432ZM56.864 16.096C57.3013 15.552 57.744 14.9493 58.192 14.288C58.64 13.6267 59.0613 12.96 59.456 12.288C59.8613 11.616 60.208 10.9813 60.496 10.384C60.784 9.78667 60.9867 9.27467 61.104 8.848C60.5067 8.44267 59.9093 8.13867 59.312 7.936C58.896 8.672 58.4533 9.44 57.984 10.24C57.5253 11.04 57.0773 11.808 56.64 12.544C56.2027 13.28 55.808 13.9253 55.456 14.48C55.1147 15.024 54.8533 15.4187 54.672 15.664C54.4373 15.4507 54.144 15.168 53.792 14.816C53.4507 14.4533 53.0933 14.0747 52.72 13.68C52.3573 13.2747 52.0053 12.8853 51.664 12.512C51.3333 12.1387 51.0507 11.8187 50.816 11.552C50.5813 11.2853 50.4373 11.12 50.384 11.056L51.184 10.144L54.544 13.632C54.672 13.4507 54.8533 13.1573 55.088 12.752C55.3333 12.3467 55.6053 11.8667 55.904 11.312C56.2133 10.7573 56.5387 10.1653 56.88 9.536C57.2213 8.90667 57.552 8.288 57.872 7.68H57.728C57.248 7.68 56.7733 7.75467 56.304 7.904C55.8453 8.05333 55.3867 8.26667 54.928 8.544L55.792 11.232L54.688 11.68L53.84 9.328C53.424 9.68 53.0027 10.0853 52.576 10.544L51.648 9.632C51.9467 9.33333 52.24 9.06133 52.528 8.816C52.816 8.56 53.104 8.32533 53.392 8.112L52.256 4.96L53.616 4.464L54.544 7.376C55.0773 7.088 55.616 6.86933 56.16 6.72C56.704 6.57067 57.2533 6.496 57.808 6.496C57.9253 6.496 58.0373 6.50133 58.144 6.512C58.2613 6.512 58.3733 6.51733 58.48 6.528C58.768 5.984 59.024 5.49867 59.248 5.072C59.472 4.63467 59.6373 4.29867 59.744 4.064L61.136 4.688C61.0293 4.89067 60.8693 5.184 60.656 5.568C60.4427 5.94133 60.2027 6.36267 59.936 6.832C60.9173 7.14133 61.952 7.65333 63.04 8.368C62.816 9.008 62.5173 9.70133 62.144 10.448C61.7707 11.184 61.3547 11.9307 60.896 12.688C60.4373 13.4453 59.9627 14.1653 59.472 14.848C58.9813 15.5307 58.5013 16.1387 58.032 16.672L56.864 16.096ZM71.664 4.112L73.136 4.688L68.336 16.4L67.072 15.936L71.664 4.112ZM79.68 13.328C79.36 13.616 78.96 13.9147 78.48 14.224C78.0107 14.5227 77.4933 14.8107 76.928 15.088C76.3733 15.3547 75.8133 15.5893 75.248 15.792C74.6827 15.9947 74.144 16.144 73.632 16.24L72.784 11.52L71.04 12.08L71.088 10.624L73.936 9.856L74.688 14.464C75.1893 14.3467 75.7173 14.1653 76.272 13.92C76.8267 13.6747 77.3547 13.4027 77.856 13.104C78.3573 12.7947 78.7733 12.5067 79.104 12.24L79.68 13.328ZM88.464 4.112L93.104 4.176L93.04 5.568L88.384 5.344L88.464 4.112ZM85.008 5.2L86.464 4.592L87.76 8.192C88.5493 7.85067 89.3707 7.57867 90.224 7.376C91.0773 7.17333 91.9093 7.072 92.72 7.072C93.2213 7.072 93.7067 7.12 94.176 7.216C94.6453 7.30133 95.0773 7.44533 95.472 7.648L95.424 9.008C95.264 9.264 95.024 9.55733 94.704 9.888C94.3947 10.208 94.0427 10.5333 93.648 10.864C93.264 11.1947 92.8693 11.504 92.464 11.792C92.0693 12.08 91.7067 12.3253 91.376 12.528L90.56 11.456C91.0293 11.1787 91.488 10.864 91.936 10.512C92.3947 10.16 92.8 9.81333 93.152 9.472C93.5147 9.12 93.7707 8.816 93.92 8.56C93.5573 8.4 93.0933 8.32 92.528 8.32C91.888 8.32 91.184 8.416 90.416 8.608C89.648 8.8 88.9067 9.056 88.192 9.376L90.656 16.192L89.36 16.688L85.008 5.2ZM82.432 10.496L85.696 9.04L86.176 10.256L83.088 11.744L82.432 10.496Z" fill="#F7F4EF"/>
<path d="M115.66 9.86L108.5 12.34L107.76 11.04L114.46 8.9L111.46 8.82L111.5 7.54L114.1 7.6L114.22 6.38L115.8 6.48L115.7 7.64L119.18 7.72L119.64 5.54L111.16 6.26L110.88 4.96L114.76 4.6L115.66 3.3L112.7 3.68L112.36 2.62L109.06 5.24L110.26 4.98L111.02 9.18L109.44 9.52L108.7 5.5L108.12 5.96L107.02 4.8L112.36 0.72L113.48 1.74L112.66 2.4L118.38 1.8L116.64 4.42L121.7 3.94L120.5 9.06L115 8.9L115.66 9.86ZM116.82 11.66L121.06 9.1L122.04 10.36L117.78 12.86L116.82 11.66ZM112.36 16.2L115.16 16.5L114.88 12.02L113.84 11.12L115.22 10.52L116.46 11.48L116.98 18.44L112.12 17.44L112.36 16.2ZM107.34 13.72L113.4 11.42L114.26 12.54L108.1 14.96L107.34 13.72ZM117.82 13.12L123.76 16.14L122.82 17.54L116.94 14.32L117.82 13.12ZM106.76 16.52L113.96 13.42L114.8 14.6L107.68 17.78L106.76 16.52ZM129.04 2.68L141.82 1.82L141.94 3.52L129.16 4.4L129.04 2.68ZM133.8 15.56L136.86 16.12L136.76 11.28L128.36 17.06L127.16 15.68L136.72 9.32L136.62 4.54L138.38 4.52L138.44 7.46L143.36 7.1L143.48 8.68L138.46 9.06L138.68 18.42L133.56 16.94L133.8 15.56ZM130.76 4.9L132.48 5.38L131.52 8.02L136 7.66L136.04 9.26L129.22 9.8L130.76 4.9Z" fill="#F7F4EF"/>
</g>
<defs>
<clipPath id="clip0_492_368">
<rect width="146" height="20" fill="white"/>
</clipPath>
</defs>
</svg>
