<svg width="98" height="14" viewBox="0 0 98 14" fill="none" xmlns="http://www.w3.org/2000/svg">
<path d="M6.368 10.928C6.10133 11.0667 5.78667 11.2267 5.424 11.408C5.072 11.5787 4.70933 11.7493 4.336 11.92C3.97333 12.08 3.632 12.2187 3.312 12.336L3.424 0.528L4.944 0.415999L4.64 10.336C4.87467 10.272 5.152 10.192 5.472 10.096C5.792 9.98933 6.064 9.89333 6.288 9.808L6.368 10.928ZM6.4 3.968L13.12 1.792L13.472 3.232L6.784 5.168L6.4 3.968ZM7.84 7.616L14.032 9.936L13.456 11.44L7.392 8.912L7.84 7.616ZM24.096 12.736C24.1387 12.2773 24.1707 11.7973 24.192 11.296C24.224 10.7947 24.2507 10.2827 24.272 9.76L23.024 9.392L23.296 8.352L24.32 8.608C24.3307 8.20267 24.336 7.792 24.336 7.376C24.3467 6.96 24.352 6.55467 24.352 6.16C24.352 5.43467 24.3413 4.73067 24.32 4.048C24.3093 3.36533 24.288 2.74667 24.256 2.192L25.632 2.144C25.632 2.41067 25.632 2.69333 25.632 2.992C25.6427 3.29067 25.648 3.6 25.648 3.92C25.904 3.888 26.16 3.872 26.416 3.872C27.12 3.872 27.7813 4 28.4 4.256C29.0187 4.512 29.5413 4.88 29.968 5.36C29.8827 5.712 29.7333 6.11733 29.52 6.576C29.3173 7.03467 29.0827 7.51467 28.816 8.016C28.56 8.50667 28.2933 8.98133 28.016 9.44C27.7387 9.89867 27.4827 10.304 27.248 10.656L25.536 10.144C25.5147 10.6027 25.488 11.0507 25.456 11.488C25.4347 11.9253 25.4027 12.352 25.36 12.768L24.096 12.736ZM19.392 5.024L20.608 4.448L21.392 6.416C21.7227 5.95733 22.0693 5.552 22.432 5.2C22.8053 4.848 23.1893 4.55467 23.584 4.32L23.84 5.552C23.4773 5.76533 23.1307 6.05333 22.8 6.416C22.4693 6.768 22.1653 7.17867 21.888 7.648L22.832 10.016L21.68 10.512L19.392 5.024ZM26.704 9.216C27.12 8.55467 27.472 7.91467 27.76 7.296C28.0587 6.66667 28.2613 6.13867 28.368 5.712C28.1653 5.46667 27.888 5.296 27.536 5.2C27.1947 5.09333 26.8213 5.04 26.416 5.04C26.16 5.04 25.904 5.056 25.648 5.088C25.648 5.70667 25.6427 6.336 25.632 6.976C25.6213 7.616 25.6053 8.26667 25.584 8.928L26.704 9.216ZM37.488 0.079999L44.448 0.384L44.288 1.92L37.232 1.44L37.488 0.079999ZM39.936 12.432C40.288 11.984 40.656 11.4613 41.04 10.864C41.424 10.256 41.792 9.62667 42.144 8.976C42.5067 8.31467 42.8267 7.68533 43.104 7.088C43.392 6.48 43.6107 5.96267 43.76 5.536C43.3867 5.35467 43.0187 5.22133 42.656 5.136C42.2933 5.05067 41.936 5.008 41.584 5.008C40.944 5.008 40.3147 5.11467 39.696 5.328C39.0773 5.54133 38.4693 5.79733 37.872 6.096C37.2853 6.384 36.6987 6.656 36.112 6.912L35.44 5.632C36.208 5.29067 36.9333 4.976 37.616 4.688C38.3093 4.38933 38.9867 4.15467 39.648 3.984C40.32 3.80267 40.9973 3.712 41.68 3.712C42.3093 3.712 42.9547 3.80267 43.616 3.984C44.288 4.15467 45.0027 4.448 45.76 4.864C45.5467 5.408 45.2747 6.03733 44.944 6.752C44.6133 7.46667 44.2453 8.208 43.84 8.976C43.4347 9.744 43.008 10.4853 42.56 11.2C42.1227 11.904 41.6853 12.5227 41.248 13.056L39.936 12.432ZM57.424 12.096C57.8613 11.552 58.304 10.9493 58.752 10.288C59.2 9.62667 59.6213 8.96 60.016 8.288C60.4213 7.616 60.768 6.98133 61.056 6.384C61.344 5.78667 61.5467 5.27467 61.664 4.848C61.0667 4.44267 60.4693 4.13867 59.872 3.936C59.456 4.672 59.0133 5.44 58.544 6.24C58.0853 7.04 57.6373 7.808 57.2 8.544C56.7627 9.28 56.368 9.92533 56.016 10.48C55.6747 11.024 55.4133 11.4187 55.232 11.664C54.9973 11.4507 54.704 11.168 54.352 10.816C54.0107 10.4533 53.6533 10.0747 53.28 9.68C52.9173 9.27467 52.5653 8.88533 52.224 8.512C51.8933 8.13867 51.6107 7.81867 51.376 7.552C51.1413 7.28533 50.9973 7.12 50.944 7.056L51.744 6.144L55.104 9.632C55.232 9.45067 55.4133 9.15733 55.648 8.752C55.8933 8.34667 56.1653 7.86667 56.464 7.312C56.7733 6.75733 57.0987 6.16533 57.44 5.536C57.7813 4.90667 58.112 4.288 58.432 3.68H58.288C57.808 3.68 57.3333 3.75467 56.864 3.904C56.4053 4.05333 55.9467 4.26667 55.488 4.544L56.352 7.232L55.248 7.68L54.4 5.328C53.984 5.68 53.5627 6.08533 53.136 6.544L52.208 5.632C52.5067 5.33333 52.8 5.06133 53.088 4.816C53.376 4.56 53.664 4.32533 53.952 4.112L52.816 0.959999L54.176 0.464L55.104 3.376C55.6373 3.088 56.176 2.86933 56.72 2.72C57.264 2.57067 57.8133 2.496 58.368 2.496C58.4853 2.496 58.5973 2.50133 58.704 2.512C58.8213 2.512 58.9333 2.51733 59.04 2.528C59.328 1.984 59.584 1.49867 59.808 1.072C60.032 0.634666 60.1973 0.298666 60.304 0.0639992L61.696 0.688C61.5893 0.890666 61.4293 1.184 61.216 1.568C61.0027 1.94133 60.7627 2.36267 60.496 2.832C61.4773 3.14133 62.512 3.65333 63.6 4.368C63.376 5.008 63.0773 5.70133 62.704 6.448C62.3307 7.184 61.9147 7.93067 61.456 8.688C60.9973 9.44533 60.5227 10.1653 60.032 10.848C59.5413 11.5307 59.0613 12.1387 58.592 12.672L57.424 12.096ZM72.304 0.112L73.776 0.688L68.976 12.4L67.712 11.936L72.304 0.112ZM80.32 9.328C80 9.616 79.6 9.91467 79.12 10.224C78.6507 10.5227 78.1333 10.8107 77.568 11.088C77.0133 11.3547 76.4533 11.5893 75.888 11.792C75.3227 11.9947 74.784 12.144 74.272 12.24L73.424 7.52L71.68 8.08L71.728 6.624L74.576 5.856L75.328 10.464C75.8293 10.3467 76.3573 10.1653 76.912 9.92C77.4667 9.67467 77.9947 9.40267 78.496 9.104C78.9973 8.79467 79.4133 8.50667 79.744 8.24L80.32 9.328ZM89.184 0.112L93.824 0.176L93.76 1.568L89.104 1.344L89.184 0.112ZM85.728 1.2L87.184 0.591999L88.48 4.192C89.2693 3.85067 90.0907 3.57867 90.944 3.376C91.7973 3.17333 92.6293 3.072 93.44 3.072C93.9413 3.072 94.4267 3.12 94.896 3.216C95.3653 3.30133 95.7973 3.44533 96.192 3.648L96.144 5.008C95.984 5.264 95.744 5.55733 95.424 5.888C95.1147 6.208 94.7627 6.53333 94.368 6.864C93.984 7.19467 93.5893 7.504 93.184 7.792C92.7893 8.08 92.4267 8.32533 92.096 8.528L91.28 7.456C91.7493 7.17867 92.208 6.864 92.656 6.512C93.1147 6.16 93.52 5.81333 93.872 5.472C94.2347 5.12 94.4907 4.816 94.64 4.56C94.2773 4.4 93.8133 4.32 93.248 4.32C92.608 4.32 91.904 4.416 91.136 4.608C90.368 4.8 89.6267 5.056 88.912 5.376L91.376 12.192L90.08 12.688L85.728 1.2ZM83.152 6.496L86.416 5.04L86.896 6.256L83.808 7.744L83.152 6.496Z" fill="#463B2F"/>
</svg>
