<svg width="85" height="12" viewBox="0 0 85 12" fill="none" xmlns="http://www.w3.org/2000/svg">
<path d="M5.302 10.062C5.06867 10.1833 4.79333 10.3233 4.476 10.482C4.168 10.6313 3.85067 10.7807 3.524 10.93C3.20667 11.07 2.908 11.1913 2.628 11.294L2.726 0.962L4.056 0.863999L3.79 9.544C3.99533 9.488 4.238 9.418 4.518 9.334C4.798 9.24067 5.036 9.15667 5.232 9.082L5.302 10.062ZM5.33 3.972L11.21 2.068L11.518 3.328L5.666 5.022L5.33 3.972ZM6.59 7.164L12.008 9.194L11.504 10.51L6.198 8.298L6.59 7.164ZM20.772 11.644C20.8093 11.2427 20.8373 10.8227 20.856 10.384C20.884 9.94533 20.9073 9.49733 20.926 9.04L19.834 8.718L20.072 7.808L20.968 8.032C20.9773 7.67733 20.982 7.318 20.982 6.954C20.9913 6.59 20.996 6.23533 20.996 5.89C20.996 5.25533 20.9867 4.63933 20.968 4.042C20.9587 3.44467 20.94 2.90333 20.912 2.418L22.116 2.376C22.116 2.60933 22.116 2.85667 22.116 3.118C22.1253 3.37933 22.13 3.65 22.13 3.93C22.354 3.902 22.578 3.888 22.802 3.888C23.418 3.888 23.9967 4 24.538 4.224C25.0793 4.448 25.5367 4.77 25.91 5.19C25.8353 5.498 25.7047 5.85267 25.518 6.254C25.3407 6.65533 25.1353 7.07533 24.902 7.514C24.678 7.94333 24.4447 8.35867 24.202 8.76C23.9593 9.16133 23.7353 9.516 23.53 9.824L22.032 9.376C22.0133 9.77733 21.99 10.1693 21.962 10.552C21.9433 10.9347 21.9153 11.308 21.878 11.672L20.772 11.644ZM16.656 4.896L17.72 4.392L18.406 6.114C18.6953 5.71267 18.9987 5.358 19.316 5.05C19.6427 4.742 19.9787 4.48533 20.324 4.28L20.548 5.358C20.2307 5.54467 19.9273 5.79667 19.638 6.114C19.3487 6.422 19.0827 6.78133 18.84 7.192L19.666 9.264L18.658 9.698L16.656 4.896ZM23.054 8.564C23.418 7.98533 23.726 7.42533 23.978 6.884C24.2393 6.33333 24.4167 5.87133 24.51 5.498C24.3327 5.28333 24.09 5.134 23.782 5.05C23.4833 4.95667 23.1567 4.91 22.802 4.91C22.578 4.91 22.354 4.924 22.13 4.952C22.13 5.49333 22.1253 6.044 22.116 6.604C22.1067 7.164 22.0927 7.73333 22.074 8.312L23.054 8.564ZM32.448 0.569999L38.538 0.836L38.398 2.18L32.224 1.76L32.448 0.569999ZM34.59 11.378C34.898 10.986 35.22 10.5287 35.556 10.006C35.892 9.474 36.214 8.92333 36.522 8.354C36.8393 7.77533 37.1193 7.22467 37.362 6.702C37.614 6.17 37.8053 5.71733 37.936 5.344C37.6093 5.18533 37.2873 5.06867 36.97 4.994C36.6527 4.91933 36.34 4.882 36.032 4.882C35.472 4.882 34.9213 4.97533 34.38 5.162C33.8387 5.34867 33.3067 5.57267 32.784 5.834C32.2707 6.086 31.7573 6.324 31.244 6.548L30.656 5.428C31.328 5.12933 31.9627 4.854 32.56 4.602C33.1667 4.34067 33.7593 4.13533 34.338 3.986C34.926 3.82733 35.5187 3.748 36.116 3.748C36.6667 3.748 37.2313 3.82733 37.81 3.986C38.398 4.13533 39.0233 4.392 39.686 4.756C39.4993 5.232 39.2613 5.78267 38.972 6.408C38.6827 7.03333 38.3607 7.682 38.006 8.354C37.6513 9.026 37.278 9.67467 36.886 10.3C36.5033 10.916 36.1207 11.4573 35.738 11.924L34.59 11.378ZM49.85 11.084C50.2327 10.608 50.62 10.0807 51.012 9.502C51.404 8.92333 51.7727 8.34 52.118 7.752C52.4727 7.164 52.776 6.60867 53.028 6.086C53.28 5.56333 53.4573 5.11533 53.56 4.742C53.0373 4.38733 52.5147 4.12133 51.992 3.944C51.628 4.588 51.2407 5.26 50.83 5.96C50.4287 6.66 50.0367 7.332 49.654 7.976C49.2713 8.62 48.926 9.18467 48.618 9.67C48.3193 10.146 48.0907 10.4913 47.932 10.706C47.7267 10.5193 47.47 10.272 47.162 9.964C46.8633 9.64667 46.5507 9.31533 46.224 8.97C45.9067 8.61533 45.5987 8.27467 45.3 7.948C45.0107 7.62133 44.7633 7.34133 44.558 7.108C44.3527 6.87467 44.2267 6.73 44.18 6.674L44.88 5.876L47.82 8.928C47.932 8.76933 48.0907 8.51267 48.296 8.158C48.5107 7.80333 48.7487 7.38333 49.01 6.898C49.2807 6.41267 49.5653 5.89467 49.864 5.344C50.1627 4.79333 50.452 4.252 50.732 3.72H50.606C50.186 3.72 49.7707 3.78533 49.36 3.916C48.9587 4.04667 48.5573 4.23333 48.156 4.476L48.912 6.828L47.946 7.22L47.204 5.162C46.84 5.47 46.4713 5.82467 46.098 6.226L45.286 5.428C45.5473 5.16667 45.804 4.92867 46.056 4.714C46.308 4.49 46.56 4.28467 46.812 4.098L45.818 1.34L47.008 0.906L47.82 3.454C48.2867 3.202 48.758 3.01067 49.234 2.88C49.71 2.74933 50.1907 2.684 50.676 2.684C50.7787 2.684 50.8767 2.68867 50.97 2.698C51.0727 2.698 51.1707 2.70267 51.264 2.712C51.516 2.236 51.74 1.81133 51.936 1.438C52.132 1.05533 52.2767 0.761333 52.37 0.555999L53.588 1.102C53.4947 1.27933 53.3547 1.536 53.168 1.872C52.9813 2.19867 52.7713 2.56733 52.538 2.978C53.3967 3.24867 54.302 3.69667 55.254 4.322C55.058 4.882 54.7967 5.48867 54.47 6.142C54.1433 6.786 53.7793 7.43933 53.378 8.102C52.9767 8.76467 52.5613 9.39467 52.132 9.992C51.7027 10.5893 51.2827 11.1213 50.872 11.588L49.85 11.084ZM62.828 0.598L64.116 1.102L59.916 11.35L58.81 10.944L62.828 0.598ZM69.842 8.662C69.562 8.914 69.212 9.17533 68.792 9.446C68.3813 9.70733 67.9287 9.95933 67.434 10.202C66.9487 10.4353 66.4587 10.6407 65.964 10.818C65.4693 10.9953 64.998 11.126 64.55 11.21L63.808 7.08L62.282 7.57L62.324 6.296L64.816 5.624L65.474 9.656C65.9127 9.55333 66.3747 9.39467 66.86 9.18C67.3453 8.96533 67.8073 8.72733 68.246 8.466C68.6847 8.19533 69.0487 7.94333 69.338 7.71L69.842 8.662ZM77.556 0.598L81.616 0.654L81.56 1.872L77.486 1.676L77.556 0.598ZM74.532 1.55L75.806 1.018L76.94 4.168C77.6307 3.86933 78.3493 3.63133 79.096 3.454C79.8427 3.27667 80.5707 3.188 81.28 3.188C81.7187 3.188 82.1433 3.23 82.554 3.314C82.9647 3.38867 83.3427 3.51467 83.688 3.692L83.646 4.882C83.506 5.106 83.296 5.36267 83.016 5.652C82.7453 5.932 82.4373 6.21667 82.092 6.506C81.756 6.79533 81.4107 7.066 81.056 7.318C80.7107 7.57 80.3933 7.78467 80.104 7.962L79.39 7.024C79.8007 6.78133 80.202 6.506 80.594 6.198C80.9953 5.89 81.35 5.58667 81.658 5.288C81.9753 4.98 82.1993 4.714 82.33 4.49C82.0127 4.35 81.6067 4.28 81.112 4.28C80.552 4.28 79.936 4.364 79.264 4.532C78.592 4.7 77.9433 4.924 77.318 5.204L79.474 11.168L78.34 11.602L74.532 1.55ZM72.278 6.184L75.134 4.91L75.554 5.974L72.852 7.276L72.278 6.184Z" fill="#463B2F"/>
</svg>
